<?xml version="1.0" encoding="UTF-8"?>
<svg version="1.1" xmlns="http://www.w3.org/2000/svg" width="192" height="192">
<path d="M0 0 C12.59556218 0.06113765 25.1909159 0.13819058 37.78625202 0.23571491 C43.63442426 0.2804933 49.48252562 0.31973291 55.33081055 0.34643555 C60.97192467 0.37239403 66.61276713 0.41274336 72.25371361 0.46318626 C74.40870988 0.47990553 76.56375318 0.49138818 78.71880531 0.49761391 C81.73120409 0.50720003 84.74289986 0.5351933 87.75512695 0.56762695 C88.65136276 0.56619186 89.54759857 0.56475677 90.47099304 0.5632782 C91.29128998 0.57581635 92.11158691 0.58835449 92.95674133 0.60127258 C93.66928731 0.60588155 94.38183329 0.61049051 95.11597157 0.61523914 C97.5627794 1.11493217 98.48230663 2.05304479 100 4 C100 4.66 100 5.32 100 6 C99.34 6 98.68 6 98 6 C97.814375 7.423125 97.814375 7.423125 97.625 8.875 C97 12 97 12 95 14 C94.6550855 15.33038449 94.32483418 16.66457061 94 18 C93.01488198 20.3396553 92.01529541 22.67328135 91 25 C90.67 25.99 90.34 26.98 90 28 C89.34 28 88.68 28 88 28 C87.67 28.66 87.34 29.32 87 30 C86.34 30 85.68 30 85 30 C85 30.66 85 31.32 85 32 C84.01 32.495 84.01 32.495 83 33 C83 33.66 83 34.32 83 35 C58.91 35 34.82 35 10 35 C10 35.99 10 36.98 10 38 C27.82 38 45.64 38 64 38 C64.33 38.66 64.66 39.32 65 40 C65.99 40 66.98 40 68 40 C68.33 41.32 68.66 42.64 69 44 C69.99 44 70.98 44 72 44 C72.33 45.32 72.66 46.64 73 48 C74.32 48 75.64 48 77 48 C78.0625 49.8125 78.0625 49.8125 79 52 C78.67 52.99 78.34 53.98 78 55 C79.65 55.33 81.3 55.66 83 56 C83 63.92 83 71.84 83 80 C82.34 80 81.68 80 81 80 C81 81.32 81 82.64 81 84 C80.34 84 79.68 84 79 84 C78.67 84.99 78.34 85.98 78 87 C76.69077305 90.92768085 75.1820795 93.31512042 72 96 C71.34 96 70.68 96 70 96 C69.67 96.99 69.34 97.98 69 99 C66.52932094 103.04125943 63.99211003 106.38017779 60 109 C59.21625 109.680625 58.4325 110.36125 57.625 111.0625 C54.79813111 113.14899847 52.32465039 113.93894136 49 115 C48.39112568 115.50767819 47.78225136 116.01535639 47.1549263 116.53841877 C44.43346709 118.38425159 42.85205032 118.35750246 39.5836792 118.32279968 C37.93467117 118.31636444 37.93467117 118.31636444 36.25234985 118.30979919 C34.4505275 118.27959435 34.4505275 118.27959435 32.61230469 118.2487793 C31.34375641 118.23946381 30.07520813 118.23014832 28.76821899 118.22055054 C25.2931254 118.19468847 21.81849268 118.15014378 18.34364223 118.10225272 C14.71090437 118.05536 11.07802713 118.02563655 7.44512939 117.99409485 C0.5673182 117.93176939 -6.31022812 117.85399474 -13.18781352 117.77067453 C-21.0183581 117.67656133 -28.84904207 117.59966287 -36.67978525 117.52421319 C-52.78675637 117.3686357 -68.89341426 117.19143062 -85 117 C-85 115.35 -85 113.7 -85 112 C-82.525 111.505 -82.525 111.505 -80 111 C-80 110.67 -80 110.34 -80 110 C-77.03 109.505 -77.03 109.505 -74 109 C-74 108.67 -74 108.34 -74 108 C-62.47835991 106.85193622 -62.47835991 106.85193622 -57 107 C-57 106.67 -57 106.34 -57 106 C-55.60974609 105.92652344 -55.60974609 105.92652344 -54.19140625 105.8515625 C-52.39509766 105.73941406 -52.39509766 105.73941406 -50.5625 105.625 C-49.36753906 105.55539063 -48.17257813 105.48578125 -46.94140625 105.4140625 C-45.48541016 105.20910156 -45.48541016 105.20910156 -44 105 C-43.67 104.34 -43.34 103.68 -43 103 C-48.94 102.67 -54.88 102.34 -61 102 C-62 100 -62 100 -62 94 C-54.575 93.01 -54.575 93.01 -47 92 C-47 91.67 -47 91.34 -47 91 C-44.03 90.505 -44.03 90.505 -41 90 C-41 89.34 -41 88.68 -41 88 C-37.04 88 -33.08 88 -29 88 C-29 87.34 -29 86.68 -29 86 C-9.2 86 10.6 86 31 86 C31 85.67 31 85.34 31 85 C33.31 85 35.62 85 38 85 C38 84.34 38 83.68 38 83 C44.625 80.125 44.625 80.125 48 79 C48 78.01 48 77.02 48 76 C48.66 76 49.32 76 50 76 C50 74.35 50 72.7 50 71 C49.34045319 71.00222061 48.68090637 71.00444122 48.00137329 71.00672913 C41.15619446 71.02879894 34.31102568 71.04391373 27.46582031 71.05493164 C24.90884999 71.05997017 22.35188257 71.06680107 19.79492188 71.07543945 C16.12629483 71.08752602 12.45770577 71.09323301 8.7890625 71.09765625 C7.64007477 71.10281754 6.49108704 71.10797882 5.30728149 71.11329651 C4.2463327 71.11337204 3.18538391 71.11344757 2.09228516 71.11352539 C1.15518707 71.115746 0.21808899 71.11796661 -0.74740601 71.12025452 C-3 71 -3 71 -5 70 C-5.99 70 -6.98 70 -8 70 C-8.33 69.34 -8.66 68.68 -9 68 C-10.485 67.505 -10.485 67.505 -12 67 C-12 66.34 -12 65.68 -12 65 C-13.485 64.505 -13.485 64.505 -15 64 C-15 63.34 -15 62.68 -15 62 C-16.65 61.67 -18.3 61.34 -20 61 C-20.12375 60.360625 -20.2475 59.72125 -20.375 59.0625 C-20.684375 58.0415625 -20.684375 58.0415625 -21 57 C-21.99 56.505 -21.99 56.505 -23 56 C-22.67 55.01 -22.34 54.02 -22 53 C-23.65 52.67 -25.3 52.34 -27 52 C-27.05783842 47.70838953 -27.0935412 43.41687855 -27.125 39.125 C-27.14175781 37.90167969 -27.15851562 36.67835937 -27.17578125 35.41796875 C-27.18544922 33.66806641 -27.18544922 33.66806641 -27.1953125 31.8828125 C-27.21102295 30.26463623 -27.21102295 30.26463623 -27.22705078 28.61376953 C-27 26 -27 26 -25 24 C-25 23.34 -25 22.68 -25 22 C-24.01 21.67 -23.02 21.34 -22 21 C-22.495 20.01 -22.495 20.01 -23 19 C-22.34 19 -21.68 19 -21 19 C-21 18.01 -21 17.02 -21 16 C-20.01 15.67 -19.02 15.34 -18 15 C-18 14.01 -18 13.02 -18 12 C-17.46375 11.773125 -16.9275 11.54625 -16.375 11.3125 C-14.22369799 10.12362257 -12.74962458 8.93934501 -10.9375 7.3125 C-9.968125 6.549375 -8.99875 5.78625 -8 5 C-7.01 5.33 -6.02 5.66 -5 6 C-4.67 4.68 -4.34 3.36 -4 2 C-2.68 2 -1.36 2 0 2 C0 1.34 0 0.68 0 0 Z M0 2 C4 3 4 3 4 3 Z M92 15 C93 17 93 17 93 17 Z M7 36 C8 39 8 39 8 39 Z M53 70 C54 72 54 72 54 72 Z M51 72 C52 76 52 76 52 76 Z M78 81 C79 84 79 84 79 84 Z M73 91 C74 93 74 93 74 93 Z M-11 102 C-11 102.33 -11 102.66 -11 103 C-7.04 103 -3.08 103 1 103 C1 102.67 1 102.34 1 102 C-2.96 102 -6.92 102 -11 102 Z M-22 104 C-22 104.33 -22 104.66 -22 105 C-18.7 105 -15.4 105 -12 105 C-12 104.67 -12 104.34 -12 104 C-15.3 104 -18.6 104 -22 104 Z M-43 105 C-43 105.33 -43 105.66 -43 106 C-40.69 106 -38.38 106 -36 106 C-36 105.67 -36 105.34 -36 105 C-38.31 105 -40.62 105 -43 105 Z " fill="#01FC72" transform="translate(87,37)"/>
<path d="M0 0 C12.59556218 0.06113765 25.1909159 0.13819058 37.78625202 0.23571491 C43.63442426 0.2804933 49.48252562 0.31973291 55.33081055 0.34643555 C60.97192467 0.37239403 66.61276713 0.41274336 72.25371361 0.46318626 C74.40870988 0.47990553 76.56375318 0.49138818 78.71880531 0.49761391 C81.73120409 0.50720003 84.74289986 0.5351933 87.75512695 0.56762695 C88.65136276 0.56619186 89.54759857 0.56475677 90.47099304 0.5632782 C91.29128998 0.57581635 92.11158691 0.58835449 92.95674133 0.60127258 C93.66928731 0.60588155 94.38183329 0.61049051 95.11597157 0.61523914 C97.5627794 1.11493217 98.48230663 2.05304479 100 4 C100 4.66 100 5.32 100 6 C99.34 6 98.68 6 98 6 C97.814375 7.423125 97.814375 7.423125 97.625 8.875 C97 12 97 12 95 14 C94.6550855 15.33038449 94.32483418 16.66457061 94 18 C93.01488198 20.3396553 92.01529541 22.67328135 91 25 C90.505 26.485 90.505 26.485 90 28 C89.34 28 88.68 28 88 28 C87.67 28.66 87.34 29.32 87 30 C86.34 30 85.68 30 85 30 C85 30.66 85 31.32 85 32 C84.01 32.495 84.01 32.495 83 33 C83 33.66 83 34.32 83 35 C58.91 35 34.82 35 10 35 C10 35.99 10 36.98 10 38 C27.82 38 45.64 38 64 38 C64 38.66 64 39.32 64 40 C46.18 40.33 28.36 40.66 10 41 C10 41.66 10 42.32 10 43 C7.5625 42.625 7.5625 42.625 5 42 C3.43569752 38.87139505 3.64372716 36.44397075 4 33 C7.73210429 29.06055658 10.84189254 28.09996956 16.12503052 27.85523987 C17.96797195 27.84097206 17.96797195 27.84097206 19.84814453 27.82641602 C20.52826599 27.819729 21.20838745 27.81304199 21.90911865 27.80615234 C23.38122926 27.79213768 24.85336114 27.78023232 26.3255043 27.77020454 C28.65359567 27.75375944 30.98152789 27.73052365 33.30953979 27.70530701 C39.92681945 27.63460373 46.54416113 27.57425995 53.16162109 27.52319336 C57.21228069 27.49145994 61.26275178 27.45020906 65.31325912 27.40299797 C66.85783388 27.38695546 68.40245196 27.37464431 69.94708633 27.36609077 C72.10180161 27.35397986 74.2560702 27.32985217 76.41064453 27.30297852 C77.63768097 27.29267105 78.86471741 27.28236359 80.12893677 27.27174377 C83.12943682 27.29545072 83.12943682 27.29545072 85 25 C85.6425235 22.93125966 85.6425235 22.93125966 86 21 C86.66 21 87.32 21 88 21 C88 20.01 88 19.02 88 18 C88.66 18 89.32 18 90 18 C90.33 15.36 90.66 12.72 91 10 C91.99 9.67 92.98 9.34 94 9 C93.505 6.525 93.505 6.525 93 4 C81.87338643 3.93048592 70.74682454 3.8771815 59.62003803 3.84456348 C54.4534011 3.82890838 49.28691275 3.80767278 44.12036133 3.77368164 C39.13423896 3.74108289 34.14825951 3.72314582 29.1620388 3.71536827 C27.2598362 3.70982571 25.35764141 3.69900245 23.45549965 3.68280983 C20.79088062 3.66102874 18.12685195 3.65803336 15.4621582 3.65942383 C14.2828775 3.64324509 14.2828775 3.64324509 13.07977295 3.6267395 C8.48865176 3.65265873 5.72990712 4.32701439 2 7 C1.34 7.12375 0.68 7.2475 0 7.375 C-3.09900259 8.34343831 -4.84171272 10.68916361 -7 13 C-8.37096185 14.37902633 -9.74621735 15.75379308 -11.125 17.125 C-11.78757812 17.78757812 -12.45015625 18.45015625 -13.1328125 19.1328125 C-14.29689321 20.29689321 -15.46654427 21.45546246 -16.64453125 22.60546875 C-18.12388605 24.05752831 -18.12388605 24.05752831 -19.5625 26.1875 C-20.2740625 27.0846875 -20.2740625 27.0846875 -21 28 C-21.66 28 -22.32 28 -23 28 C-22.979375 29.11375 -22.95875 30.2275 -22.9375 31.375 C-23 35 -23 35 -24 37 C-24.66 37 -25.32 37 -26 37 C-26.22151549 35.20991533 -26.42682213 33.41781838 -26.625 31.625 C-26.74101563 30.62726563 -26.85703125 29.62953125 -26.9765625 28.6015625 C-26.98429687 27.74304688 -26.99203125 26.88453125 -27 26 C-26.34 25.34 -25.68 24.68 -25 24 C-25 23.34 -25 22.68 -25 22 C-24.01 21.67 -23.02 21.34 -22 21 C-22.33 20.34 -22.66 19.68 -23 19 C-22.34 19 -21.68 19 -21 19 C-21 18.01 -21 17.02 -21 16 C-20.01 15.67 -19.02 15.34 -18 15 C-18 14.01 -18 13.02 -18 12 C-17.46375 11.773125 -16.9275 11.54625 -16.375 11.3125 C-14.22369799 10.12362257 -12.74962458 8.93934501 -10.9375 7.3125 C-9.968125 6.549375 -8.99875 5.78625 -8 5 C-7.01 5.33 -6.02 5.66 -5 6 C-4.67 4.68 -4.34 3.36 -4 2 C-2.68 2 -1.36 2 0 2 C0 1.34 0 0.68 0 0 Z M0 2 C4 3 4 3 4 3 Z M92 15 C93 17 93 17 93 17 Z M7 36 C8 39 8 39 8 39 Z " fill="#057433" transform="translate(87,37)"/>
<path d="M0 0 C2.00720923 0.28674418 4.0085944 0.61866701 6 1 C6 1.66 6 2.32 6 3 C17.11867801 4.39138764 28.10050273 5.19412305 39.3125 5.1875 C40.36687256 5.18814453 41.42124512 5.18878906 42.50756836 5.18945312 C47.77493908 5.15226671 52.78981484 4.84665509 58 4 C67.46978335 3.23489168 67.46978335 3.23489168 71.75 5.375 C73.74195914 9.55811419 72.78280267 13.54142827 72 18 C71.34 18 70.68 18 70 18 C69.9175 18.7425 69.835 19.485 69.75 20.25 C68.84636905 23.56331349 67.66817101 24.88115832 65 27 C64.01 27 63.02 27 62 27 C62 27.66 62 28.32 62 29 C55.28707961 31.3407328 49.36529357 32.44091269 42.26953125 32.36328125 C41.36758026 32.36450485 40.46562927 32.36572845 39.53634644 32.36698914 C36.62807916 32.36519731 33.72062843 32.34003144 30.8125 32.3125 C28.80379315 32.30384064 26.79508544 32.29537858 24.78637695 32.28710938 C8.47155889 32.17919964 -7.74540347 31.40000648 -24 30 C-24 29.34 -24 28.68 -24 28 C-20.04 28 -16.08 28 -12 28 C-12 27.34 -12 26.68 -12 26 C7.8 26 27.6 26 48 26 C48 25.67 48 25.34 48 25 C50.31 25 52.62 25 55 25 C55 24.34 55 23.68 55 23 C61.625 20.125 61.625 20.125 65 19 C65 18.01 65 17.02 65 16 C65.66 16 66.32 16 67 16 C67 14.35 67 12.7 67 11 C66.34045319 11.00222061 65.68090637 11.00444122 65.00137329 11.00672913 C58.15619446 11.02879894 51.31102568 11.04391373 44.46582031 11.05493164 C41.90884999 11.05997017 39.35188257 11.06680107 36.79492188 11.07543945 C33.12629483 11.08752602 29.45770577 11.09323301 25.7890625 11.09765625 C24.64007477 11.10281754 23.49108704 11.10797882 22.30728149 11.11329651 C21.2463327 11.11337204 20.18538391 11.11344757 19.09228516 11.11352539 C17.68663803 11.11685631 17.68663803 11.11685631 16.25259399 11.12025452 C14 11 14 11 12 10 C11.01 10 10.02 10 9 10 C8.505 9.01 8.505 9.01 8 8 C7.01 7.67 6.02 7.34 5 7 C5 6.34 5 5.68 5 5 C4.01 4.67 3.02 4.34 2 4 C2 3.34 2 2.68 2 2 C1.01 1.67 0.02 1.34 -1 1 C-0.67 0.67 -0.34 0.34 0 0 Z M70 10 C71 12 71 12 71 12 Z M68 12 C69 16 69 16 69 16 Z " fill="#0DEE79" transform="translate(70,97)"/>
<path d="M0 0 C21.45 0 42.9 0 65 0 C65 0.66 65 1.32 65 2 C65.99 2.495 65.99 2.495 67 3 C66.25 7.75 66.25 7.75 64 10 C61.8359375 10.1953125 61.8359375 10.1953125 59.375 10.125 C58.55773437 10.10695313 57.74046875 10.08890625 56.8984375 10.0703125 C56.27195312 10.04710938 55.64546875 10.02390625 55 10 C55 10.99 55 11.98 55 13 C49.555 12.505 49.555 12.505 44 12 C44 11.67 44 11.34 44 11 C43.35298126 10.98969254 42.70596252 10.97938507 42.03933716 10.96876526 C35.32380778 10.8608425 28.60841646 10.7462332 21.89306641 10.62768555 C19.38463216 10.58429097 16.87616751 10.5426193 14.36767578 10.50268555 C10.76846132 10.44509243 7.16940058 10.38136657 3.5703125 10.31640625 C2.44319855 10.29969376 1.31608459 10.28298126 0.15481567 10.26576233 C-0.88611237 10.24581711 -1.92704041 10.22587189 -2.99951172 10.20532227 C-3.91884491 10.18977798 -4.8381781 10.1742337 -5.78536987 10.15821838 C-8 10 -8 10 -10 9 C-9.67 6.69 -9.34 4.38 -9 2 C-4.545 1.505 -4.545 1.505 0 1 C0 0.67 0 0.34 0 0 Z " fill="#14CD62" transform="translate(59,110)"/>
<path d="M0 0 C0.495 1.98 0.495 1.98 1 4 C1.99 4 2.98 4 4 4 C4.495 5.98 4.495 5.98 5 8 C6.32 8 7.64 8 9 8 C10.0625 9.8125 10.0625 9.8125 11 12 C10.67 12.99 10.34 13.98 10 15 C11.65 15.33 13.3 15.66 15 16 C15 23.92 15 31.84 15 40 C14.34 40 13.68 40 13 40 C13 41.32 13 42.64 13 44 C12.34 44 11.68 44 11 44 C10.67 44.99 10.34 45.98 10 47 C8.69077305 50.92768085 7.1820795 53.31512042 4 56 C3.34 56 2.68 56 2 56 C1.67 56.99 1.34 57.98 1 59 C-1.47067906 63.04125943 -4.00788997 66.38017779 -8 69 C-8.78375 69.680625 -9.5675 70.36125 -10.375 71.0625 C-13.20186889 73.14899847 -15.67534961 73.93894136 -19 75 C-19.91845703 75.78117187 -19.91845703 75.78117187 -20.85546875 76.578125 C-23.61970873 78.41088156 -25.0140392 78.15586275 -28.25 77.6875 C-29.14203125 77.56761719 -30.0340625 77.44773437 -30.953125 77.32421875 C-31.62859375 77.21722656 -32.3040625 77.11023438 -33 77 C-32.67 76.34 -32.34 75.68 -32 75 C-30.02 75 -28.04 75 -26 75 C-26.99 74.01 -26.99 74.01 -28 73 C-27.02160156 72.65388672 -27.02160156 72.65388672 -26.0234375 72.30078125 C-17.0745109 69.02069377 -17.0745109 69.02069377 -11 62 C-10.360625 61.690625 -9.72125 61.38125 -9.0625 61.0625 C-6.68028507 60.04654078 -6.68028507 60.04654078 -5 57 C-4.34 57 -3.68 57 -3 57 C-3 56.34 -3 55.68 -3 55 C-2.34 55 -1.68 55 -1 55 C-0.67 53.35 -0.34 51.7 0 50 C0.99 49.67 1.98 49.34 3 49 C3.95476308 46.73547192 3.95476308 46.73547192 4.5625 44.0625 C5.8011583 39.1988417 5.8011583 39.1988417 8 37 C8.30981762 34.96781259 8.30981762 34.96781259 8.265625 32.640625 C8.26820313 31.77179688 8.27078125 30.90296875 8.2734375 30.0078125 C8.26183594 28.64269531 8.26183594 28.64269531 8.25 27.25 C8.25773437 26.35539062 8.26546875 25.46078125 8.2734375 24.5390625 C8.25908505 19.67358139 8.06174135 15.50689425 6 11 C3.87958556 9.66478565 3.87958556 9.66478565 1 9 C0.39781143 8.76319016 -0.20437714 8.52638031 -0.82481384 8.28239441 C-7.32441856 5.79426189 -13.34514358 5.52874603 -20.25390625 5.48828125 C-21.39536606 5.47033005 -22.53682587 5.45237885 -23.71287537 5.43388367 C-27.32938025 5.3800558 -30.94575524 5.34597277 -34.5625 5.3125 C-37.02671068 5.27930271 -39.49090427 5.24481084 -41.95507812 5.20898438 C-47.96993552 5.12434519 -53.98481032 5.05587962 -60 5 C-60.33 4.34 -60.66 3.68 -61 3 C-60.01 3 -59.02 3 -58 3 C-58 2.34 -58 1.68 -58 1 C-50.22209355 0.85720292 -42.44417943 0.71482961 -34.66625977 0.57275391 C-32.01912255 0.52434948 -29.37198712 0.47584728 -26.72485352 0.42724609 C-22.92464656 0.35749141 -19.12443337 0.2880859 -15.32421875 0.21875 C-14.13664474 0.19687622 -12.94907074 0.17500244 -11.72550964 0.15246582 C-10.0741375 0.12243469 -10.0741375 0.12243469 -8.3894043 0.09179688 C-6.93379341 0.06514954 -6.93379341 0.06514954 -5.44877625 0.03796387 C-3.63269165 0.00980874 -1.81630283 0 0 0 Z M10 41 C11 44 11 44 11 44 Z M5 51 C6 53 6 53 6 53 Z " fill="#12D870" transform="translate(155,77)"/>
<path d="M0 0 C16.5 0 33 0 50 0 C50 0.66 50 1.32 50 2 C51.32 2.33 52.64 2.66 54 3 C46.26927977 8.15381349 35.22211879 7.58494927 26.21484375 8.2109375 C21.12376388 8.60204032 16.82766175 9.25743108 12 11 C8.74262403 11.51273511 5.48958698 11.91855564 2.21484375 12.29882812 C-1.51148147 12.71429351 -1.51148147 12.71429351 -5 14 C-7.96803929 14.09874103 -10.90741546 14.13893232 -13.875 14.125 C-15.09896484 14.13080078 -15.09896484 14.13080078 -16.34765625 14.13671875 C-17.13785156 14.13542969 -17.92804687 14.13414062 -18.7421875 14.1328125 C-19.4626123 14.13168457 -20.18303711 14.13055664 -20.92529297 14.12939453 C-23.05855744 13.99634791 -24.94751238 13.58204873 -27 13 C-27 13.66 -27 14.32 -27 15 C-32.75 15.125 -32.75 15.125 -35 14 C-35 13.34 -35 12.68 -35 12 C-35.99 11.67 -36.98 11.34 -38 11 C-36.02 10.67 -34.04 10.34 -32 10 C-32 9.67 -32 9.34 -32 9 C-20.47835991 7.85193622 -20.47835991 7.85193622 -15 8 C-15 7.67 -15 7.34 -15 7 C-13.60974609 6.92652344 -13.60974609 6.92652344 -12.19140625 6.8515625 C-10.99386719 6.77679688 -9.79632813 6.70203125 -8.5625 6.625 C-7.36753906 6.55539063 -6.17257813 6.48578125 -4.94140625 6.4140625 C-3.97074219 6.27742187 -3.00007813 6.14078125 -2 6 C-1.67 5.34 -1.34 4.68 -1 4 C-6.94 3.67 -12.88 3.34 -19 3 C-19 2.67 -19 2.34 -19 2 C-12.73 1.67 -6.46 1.34 0 1 C0 0.67 0 0.34 0 0 Z M31 3 C31 3.33 31 3.66 31 4 C34.96 4 38.92 4 43 4 C43 3.67 43 3.34 43 3 C39.04 3 35.08 3 31 3 Z M20 5 C20 5.33 20 5.66 20 6 C23.3 6 26.6 6 30 6 C30 5.67 30 5.34 30 5 C26.7 5 23.4 5 20 5 Z M-1 6 C-1 6.33 -1 6.66 -1 7 C1.31 7 3.62 7 6 7 C6 6.67 6 6.34 6 6 C3.69 6 1.38 6 -1 6 Z " fill="#0F9D3C" transform="translate(45,136)"/>
<path d="M0 0 C12.59556218 0.06113765 25.1909159 0.13819058 37.78625202 0.23571491 C43.63442426 0.2804933 49.48252562 0.31973291 55.33081055 0.34643555 C60.97192467 0.37239403 66.61276713 0.41274336 72.25371361 0.46318626 C74.40870988 0.47990553 76.56375318 0.49138818 78.71880531 0.49761391 C81.73120409 0.50720003 84.74289986 0.5351933 87.75512695 0.56762695 C88.65136276 0.56619186 89.54759857 0.56475677 90.47099304 0.5632782 C91.29128998 0.57581635 92.11158691 0.58835449 92.95674133 0.60127258 C93.66928731 0.60588155 94.38183329 0.61049051 95.11597157 0.61523914 C97.5627794 1.11493217 98.48230663 2.05304479 100 4 C100 4.66 100 5.32 100 6 C99.34 6 98.68 6 98 6 C97.814375 7.423125 97.814375 7.423125 97.625 8.875 C97 12 97 12 95 14 C94.6550855 15.33038449 94.32483418 16.66457061 94 18 C93.01488198 20.3396553 92.01529541 22.67328135 91 25 C90.505 26.485 90.505 26.485 90 28 C89.34 28 88.68 28 88 28 C87.67 28.66 87.34 29.32 87 30 C86.34 30 85.68 30 85 30 C85.33 27.03 85.66 24.06 86 21 C86.66 21 87.32 21 88 21 C88 20.01 88 19.02 88 18 C88.66 18 89.32 18 90 18 C90.33 15.36 90.66 12.72 91 10 C91.99 9.67 92.98 9.34 94 9 C93.505 6.525 93.505 6.525 93 4 C81.87338643 3.93048592 70.74682454 3.8771815 59.62003803 3.84456348 C54.4534011 3.82890838 49.28691275 3.80767278 44.12036133 3.77368164 C39.13423896 3.74108289 34.14825951 3.72314582 29.1620388 3.71536827 C27.2598362 3.70982571 25.35764141 3.69900245 23.45549965 3.68280983 C20.79088062 3.66102874 18.12685195 3.65803336 15.4621582 3.65942383 C14.2828775 3.64324509 14.2828775 3.64324509 13.07977295 3.6267395 C8.48865176 3.65265873 5.72990712 4.32701439 2 7 C1.34 7.12375 0.68 7.2475 0 7.375 C-3.09900259 8.34343831 -4.84171272 10.68916361 -7 13 C-8.37096185 14.37902633 -9.74621735 15.75379308 -11.125 17.125 C-11.78757812 17.78757812 -12.45015625 18.45015625 -13.1328125 19.1328125 C-14.29689321 20.29689321 -15.46654427 21.45546246 -16.64453125 22.60546875 C-18.12388605 24.05752831 -18.12388605 24.05752831 -19.5625 26.1875 C-20.2740625 27.0846875 -20.2740625 27.0846875 -21 28 C-21.66 28 -22.32 28 -23 28 C-22.979375 29.11375 -22.95875 30.2275 -22.9375 31.375 C-23 35 -23 35 -24 37 C-24.66 37 -25.32 37 -26 37 C-26.22151549 35.20991533 -26.42682213 33.41781838 -26.625 31.625 C-26.74101563 30.62726563 -26.85703125 29.62953125 -26.9765625 28.6015625 C-26.98429687 27.74304688 -26.99203125 26.88453125 -27 26 C-26.34 25.34 -25.68 24.68 -25 24 C-25 23.34 -25 22.68 -25 22 C-24.01 21.67 -23.02 21.34 -22 21 C-22.33 20.34 -22.66 19.68 -23 19 C-22.34 19 -21.68 19 -21 19 C-21 18.01 -21 17.02 -21 16 C-20.01 15.67 -19.02 15.34 -18 15 C-18 14.01 -18 13.02 -18 12 C-17.46375 11.773125 -16.9275 11.54625 -16.375 11.3125 C-14.22369799 10.12362257 -12.74962458 8.93934501 -10.9375 7.3125 C-9.968125 6.549375 -8.99875 5.78625 -8 5 C-7.01 5.33 -6.02 5.66 -5 6 C-4.67 4.68 -4.34 3.36 -4 2 C-2.68 2 -1.36 2 0 2 C0 1.34 0 0.68 0 0 Z M0 2 C4 3 4 3 4 3 Z M92 15 C93 17 93 17 93 17 Z " fill="#0BBF5E" transform="translate(87,37)"/>
<path d="M0 0 C5.78898419 -0.20674944 10.42932723 0.40837921 16 2 C16 1.34 16 0.68 16 0 C17.32 0.33 18.64 0.66 20 1 C19.67 1.66 19.34 2.32 19 3 C32.02116438 2.89267825 45.04227128 2.78008204 58.06333065 2.66066074 C64.10885183 2.60538258 70.1543778 2.5519549 76.19995117 2.50268555 C82.02898589 2.455114 87.8579597 2.40277409 93.68692207 2.34705925 C95.9161586 2.32660291 98.14541186 2.30789539 100.37467766 2.29092598 C103.48544264 2.26695429 106.59609129 2.23689022 109.70678711 2.20532227 C110.63826569 2.1995668 111.56974426 2.19381134 112.52944946 2.18788147 C116.58771853 2.54957733 116.58771853 2.54957733 120 1 C122.33944736 1.28730055 124.6739143 1.61936779 127 2 C127 2.33 127 2.66 127 3 C120.69473697 5.25058328 114.84126368 5.27065319 108.18969727 5.22705078 C106.43252129 5.22748886 106.43252129 5.22748886 104.6398468 5.22793579 C100.78195698 5.22654654 96.92426218 5.21100409 93.06640625 5.1953125 C90.38597792 5.19158093 87.70556027 5.18863621 85.02513123 5.18673706 C78.7000392 5.18053445 72.37501677 5.16414024 66.04995531 5.14403808 C58.84558679 5.12164101 51.64121485 5.1106761 44.43682015 5.10064721 C29.62451127 5.07977286 14.81225685 5.04462071 0 5 C0 3.35 0 1.7 0 0 Z " fill="#23E07C" transform="translate(2,149)"/>
<path d="M0 0 C6.90103354 -0.02555123 13.80205468 -0.04295062 20.703125 -0.05493164 C23.0462286 -0.05993138 25.38932912 -0.06673335 27.73242188 -0.07543945 C31.11849734 -0.08769739 34.50453123 -0.09327206 37.890625 -0.09765625 C39.43825531 -0.10539818 39.43825531 -0.10539818 41.01715088 -0.11329651 C55.50141167 -0.11439038 55.50141167 -0.11439038 62 1 C62.99 1.99 62.99 1.99 64 3 C63 4 63 4 60.4375 4.0625 C59.2309375 4.0315625 59.2309375 4.0315625 58 4 C58 4.66 58 5.32 58 6 C34.56933659 6.24080846 11.36038837 5.92599628 -12 4 C-12 3.34 -12 2.68 -12 2 C-8.04 2 -4.08 2 0 2 C0 1.34 0 0.68 0 0 Z " fill="#0E8B39" transform="translate(58,123)"/>
<path d="M0 0 C0.495 1.98 0.495 1.98 1 4 C1.99 4 2.98 4 4 4 C4.103125 4.639375 4.20625 5.27875 4.3125 5.9375 C4.539375 6.618125 4.76625 7.29875 5 8 C5.99 8.33 6.98 8.66 8 9 C8.495 12.96 8.495 12.96 9 17 C8.34 16.67 7.68 16.34 7 16 C6.896875 15.195625 6.79375 14.39125 6.6875 13.5625 C6.460625 12.716875 6.23375 11.87125 6 11 C3.9132056 9.72674137 3.9132056 9.72674137 1 9 C0.39579727 8.76117599 -0.20840546 8.52235199 -0.83091736 8.27629089 C-7.32790364 5.79337496 -13.34924003 5.52872203 -20.25390625 5.48828125 C-21.39536606 5.47033005 -22.53682587 5.45237885 -23.71287537 5.43388367 C-27.32938025 5.3800558 -30.94575524 5.34597277 -34.5625 5.3125 C-37.02671068 5.27930271 -39.49090427 5.24481084 -41.95507812 5.20898438 C-47.96993552 5.12434519 -53.98481032 5.05587962 -60 5 C-60.33 4.34 -60.66 3.68 -61 3 C-60.01 3 -59.02 3 -58 3 C-58 2.34 -58 1.68 -58 1 C-50.22209355 0.85720292 -42.44417943 0.71482961 -34.66625977 0.57275391 C-32.01912255 0.52434948 -29.37198712 0.47584728 -26.72485352 0.42724609 C-22.92464656 0.35749141 -19.12443337 0.2880859 -15.32421875 0.21875 C-14.13664474 0.19687622 -12.94907074 0.17500244 -11.72550964 0.15246582 C-10.0741375 0.12243469 -10.0741375 0.12243469 -8.3894043 0.09179688 C-6.93379341 0.06514954 -6.93379341 0.06514954 -5.44877625 0.03796387 C-3.63269165 0.00980874 -1.81630283 0 0 0 Z " fill="#15EB79" transform="translate(155,77)"/>
<path d="M0 0 C40.26 0 80.52 0 122 0 C122 0.66 122 1.32 122 2 C82.07 2 42.14 2 1 2 C0.67 1.34 0.34 0.68 0 0 Z " fill="#14B37B" transform="translate(3,155)"/>
<path d="M0 0 C2.00720923 0.28674418 4.0085944 0.61866701 6 1 C6 1.66 6 2.32 6 3 C17.11867801 4.39138764 28.10050273 5.19412305 39.3125 5.1875 C40.36687256 5.18814453 41.42124512 5.18878906 42.50756836 5.18945312 C47.77656547 5.15225523 52.78673299 4.83204261 58 4 C59.93551548 3.89233226 61.87403959 3.82605567 63.8125 3.8125 C64.74707031 3.79832031 65.68164062 3.78414063 66.64453125 3.76953125 C69 4 69 4 71 6 C66.38 6 61.76 6 57 6 C57.495 7.485 57.495 7.485 58 9 C41.83 9.33 25.66 9.66 9 10 C8.67 9.34 8.34 8.68 8 8 C7.01 7.67 6.02 7.34 5 7 C5 6.34 5 5.68 5 5 C4.01 4.67 3.02 4.34 2 4 C2 3.34 2 2.68 2 2 C1.01 1.67 0.02 1.34 -1 1 C-0.67 0.67 -0.34 0.34 0 0 Z " fill="#14D275" transform="translate(70,97)"/>
<path d="M0 0 C0.79180664 0.00921478 1.58361328 0.01842957 2.39941406 0.02792358 C3.23705292 0.02587921 4.07469177 0.02383484 4.93771362 0.02172852 C7.7088599 0.01871812 10.47941266 0.03720277 13.25048828 0.0562439 C15.17194471 0.05930071 17.09340335 0.06117742 19.01486206 0.06192017 C23.04156981 0.06652459 27.06807772 0.08095779 31.09472656 0.1031189 C36.26799944 0.13143936 41.44111505 0.14233397 46.61445808 0.14680099 C50.58114204 0.15094809 54.5477939 0.16075898 58.51446152 0.17267609 C60.42273576 0.17839072 62.33101312 0.18314545 64.23929214 0.18694305 C66.89949279 0.19378224 69.5595662 0.20740237 72.21972656 0.22323608 C73.01558167 0.22435394 73.81143677 0.2254718 74.63140869 0.22662354 C80.06548752 0.26968063 80.06548752 0.26968063 81.18017578 1.3843689 C81.2208141 3.05054005 81.22289678 4.71824984 81.18017578 6.3843689 C80.52017578 6.7143689 79.86017578 7.0443689 79.18017578 7.3843689 C78.49544913 9.27201793 78.49544913 9.27201793 78.05517578 11.4468689 C77.88759766 12.18034546 77.72001953 12.91382202 77.54736328 13.66952515 C77.36560547 14.5183728 77.36560547 14.5183728 77.18017578 15.3843689 C76.52017578 15.3843689 75.86017578 15.3843689 75.18017578 15.3843689 C75.18017578 16.3743689 75.18017578 17.3643689 75.18017578 18.3843689 C74.52017578 18.3843689 73.86017578 18.3843689 73.18017578 18.3843689 C73.82437886 15.63576908 74.62207278 13.02555407 75.61767578 10.3843689 C75.86388672 9.7243689 76.11009766 9.0643689 76.36376953 8.3843689 C77.19875658 6.33885039 78.19211208 4.36049629 79.18017578 2.3843689 C50.14017578 2.7143689 21.10017578 3.0443689 -8.81982422 3.3843689 C-5.49148275 0.05602742 -4.49521584 0.03446879 0 0 Z " fill="#0CE16E" transform="translate(99.81982421875,39.615631103515625)"/>
<path d="M0 0 C0.99 0.66 1.98 1.32 3 2 C2.67 3.65 2.34 5.3 2 7 C3.65 7.33 5.3 7.66 7 8 C7 15.92 7 23.84 7 32 C6.34 32 5.68 32 5 32 C5 33.32 5 34.64 5 36 C4.34 36 3.68 36 3 36 C2.67 36.99 2.34 37.98 2 39 C0.68 39 -0.64 39 -2 39 C-2.33 40.98 -2.66 42.96 -3 45 C-5.97 45.495 -5.97 45.495 -9 46 C-8.6875 44.0625 -8.6875 44.0625 -8 42 C-6.515 41.505 -6.515 41.505 -5 41 C-4.04523692 38.73547192 -4.04523692 38.73547192 -3.4375 36.0625 C-2.1988417 31.1988417 -2.1988417 31.1988417 0 29 C0.27891147 25.98736275 0.27891147 25.98736275 0.1953125 22.4609375 C0.18886719 21.15898438 0.18242187 19.85703125 0.17578125 18.515625 C0.15906929 17.13541405 0.14213939 15.75520571 0.125 14.375 C0.11497006 12.98698548 0.10584423 11.59896411 0.09765625 10.2109375 C0.07401863 6.80711974 0.04106867 3.40364494 0 0 Z M2 33 C3 36 3 36 3 36 Z " fill="#0EE578" transform="translate(163,85)"/>
<path d="M0 0 C13.79677277 1.96455361 27.66775726 1.61333039 41.5696106 1.52011108 C45.00962818 1.4993093 48.44967707 1.49044553 51.88973999 1.48043823 C58.58773552 1.45861798 65.28559568 1.42532698 71.98348999 1.38278198 C69.30514381 4.06112816 67.28259247 3.61927428 63.6423645 3.63162231 C62.30664398 3.62083649 62.30664398 3.62083649 60.94393921 3.60983276 C60.00730438 3.61012482 59.07066956 3.61041687 58.10565186 3.61071777 C54.99973388 3.60932083 51.89405373 3.59374247 48.78817749 3.57809448 C46.63869355 3.57436565 44.48920792 3.57151807 42.33972168 3.56951904 C36.67450287 3.56187238 31.00938616 3.54221502 25.34420776 3.52011108 C19.56643047 3.49967489 13.78863673 3.4905221 8.01083374 3.48043823 C-3.3316591 3.4589701 -14.67407608 3.42482171 -26.01651001 3.38278198 C-26.01651001 2.72278198 -26.01651001 2.06278198 -26.01651001 1.38278198 C-25.16887085 1.34519775 -25.16887085 1.34519775 -24.30410767 1.30685425 C-21.74967259 1.19098242 -19.19561451 1.06821661 -16.64151001 0.94528198 C-15.30733032 0.88630737 -15.30733032 0.88630737 -13.94619751 0.82614136 C-13.09541626 0.78424683 -12.24463501 0.74235229 -11.36807251 0.69918823 C-10.58255005 0.66253052 -9.79702759 0.6258728 -8.98770142 0.58810425 C-1.4040963 -0.20181548 -1.4040963 -0.20181548 0 0 Z " fill="#10F97D" transform="translate(47.016510009765625,148.61721801757813)"/>
<path d="M0 0 C16.5 0 33 0 50 0 C50 0.66 50 1.32 50 2 C51.32 2.33 52.64 2.66 54 3 C45.14562666 8.90291556 31.29736599 8.1971836 21 8 C20.67 7.34 20.34 6.68 20 6 C19.34 5.01 18.68 4.02 18 3 C25.42857143 1.71428571 25.42857143 1.71428571 29 3 C29 2.34 29 1.68 29 1 C19.43 1 9.86 1 0 1 C0 0.67 0 0.34 0 0 Z M31 3 C31 3.33 31 3.66 31 4 C34.96 4 38.92 4 43 4 C43 3.67 43 3.34 43 3 C39.04 3 35.08 3 31 3 Z " fill="#16C166" transform="translate(45,136)"/>
<path d="M0 0 C1.14506516 -0.00262848 1.14506516 -0.00262848 2.31326294 -0.00531006 C4.82141432 -0.00968968 7.32949446 -0.00680462 9.83764648 -0.00341797 C11.58829258 -0.00409206 13.33893858 -0.00506296 15.08958435 -0.00631714 C18.75195205 -0.00778878 22.4142953 -0.00565644 26.07666016 -0.00097656 C30.76629103 0.00472462 35.45586472 0.00143587 40.14549351 -0.00454903 C43.75803558 -0.00816543 47.37056413 -0.00701115 50.98310661 -0.00442123 C52.71223902 -0.00375517 54.44137266 -0.00456916 56.17050362 -0.00690079 C58.58766043 -0.00944547 61.00472504 -0.0055613 63.421875 0 C64.13318069 -0.00202423 64.84448639 -0.00404846 65.5773468 -0.00613403 C69.22596127 0.00938585 72.5976926 0.26406009 76.14624023 1.12939453 C76.14624023 1.45939453 76.14624023 1.78939453 76.14624023 2.12939453 C46.44624023 2.12939453 16.74624023 2.12939453 -13.85375977 2.12939453 C-13.85375977 1.79939453 -13.85375977 1.46939453 -13.85375977 1.12939453 C-9.20949335 0.21889361 -4.71637824 -0.01346016 0 0 Z " fill="#004500" transform="translate(105.853759765625,34.87060546875)"/>
<path d="M0 0 C5.61 0 11.22 0 17 0 C16.67 1.32 16.34 2.64 16 4 C9.4 4 2.8 4 -4 4 C-4 4.66 -4 5.32 -4 6 C-2.68 6.33 -1.36 6.66 0 7 C0 7.66 0 8.32 0 9 C-4.95 9 -9.9 9 -15 9 C-15 7.02 -15 5.04 -15 3 C-10.05 2.34 -5.1 1.68 0 1 C0 0.67 0 0.34 0 0 Z " fill="#12B55B" transform="translate(40,128)"/>
<path d="M0 0 C0.495 1.98 0.495 1.98 1 4 C1.99 4 2.98 4 4 4 C4.495 5.98 4.495 5.98 5 8 C4.34 8 3.68 8 3 8 C3 7.34 3 6.68 3 6 C-9.48265891 3.36898013 -22.11405288 3.55407469 -34.8125 3.375 C-37.06576908 3.33674581 -39.31902469 3.29768998 -41.57226562 3.2578125 C-47.04805612 3.16262876 -52.52393013 3.07735501 -58 3 C-58 2.34 -58 1.68 -58 1 C-50.22209355 0.85720292 -42.44417943 0.71482961 -34.66625977 0.57275391 C-32.01912255 0.52434948 -29.37198712 0.47584728 -26.72485352 0.42724609 C-22.92464656 0.35749141 -19.12443337 0.2880859 -15.32421875 0.21875 C-14.13664474 0.19687622 -12.94907074 0.17500244 -11.72550964 0.15246582 C-10.0741375 0.12243469 -10.0741375 0.12243469 -8.3894043 0.09179688 C-6.93379341 0.06514954 -6.93379341 0.06514954 -5.44877625 0.03796387 C-3.63269165 0.00980874 -1.81630283 0 0 0 Z " fill="#2EB86A" transform="translate(155,77)"/>
<path d="M0 0 C15.18 0 30.36 0 46 0 C46.495 1.485 46.495 1.485 47 3 C31.49 3 15.98 3 0 3 C0 2.01 0 1.02 0 0 Z " fill="#24E981" transform="translate(64,114)"/>
<path d="M0 0 C0.87849609 -0.00128906 1.75699219 -0.00257812 2.66210938 -0.00390625 C4.01079102 0.00189453 4.01079102 0.00189453 5.38671875 0.0078125 C6.30517578 0.00394531 7.22363281 0.00007813 8.16992188 -0.00390625 C9.04197266 -0.00261719 9.91402344 -0.00132813 10.8125 0 C12.004198 0.00169189 12.004198 0.00169189 13.2199707 0.00341797 C15.07421875 0.1328125 15.07421875 0.1328125 16.07421875 1.1328125 C17.42168959 1.36356332 18.7779944 1.54434313 20.13671875 1.6953125 C21.43609375 1.8396875 22.73546875 1.9840625 24.07421875 2.1328125 C24.07421875 2.4628125 24.07421875 2.7928125 24.07421875 3.1328125 C21.10421875 3.1328125 18.13421875 3.1328125 15.07421875 3.1328125 C15.07421875 4.1228125 15.07421875 5.1128125 15.07421875 6.1328125 C9.62921875 5.6378125 9.62921875 5.6378125 4.07421875 5.1328125 C4.07421875 4.8028125 4.07421875 4.4728125 4.07421875 4.1328125 C-10.77578125 3.8028125 -25.62578125 3.4728125 -40.92578125 3.1328125 C-40.92578125 2.8028125 -40.92578125 2.4728125 -40.92578125 2.1328125 C-40.04841309 2.10775635 -39.17104492 2.0827002 -38.26708984 2.05688477 C-34.99060934 1.96135866 -31.71428227 1.86215007 -28.43798828 1.76049805 C-27.0239696 1.71736999 -25.60990623 1.67568082 -24.19580078 1.63549805 C-22.15513685 1.577255 -20.1146933 1.51372109 -18.07421875 1.44921875 C-16.84880371 1.41256104 -15.62338867 1.37590332 -14.36083984 1.33813477 C-9.51702838 1.04860773 -4.8656606 0.00685925 0 0 Z " fill="#0CC070" transform="translate(98.92578125,116.8671875)"/>
<path d="M0 0 C18.34522979 -0.20510195 36.66666866 0.41877466 55 1 C54.67 1.66 54.34 2.32 54 3 C35.85 3 17.7 3 -1 3 C-0.67 2.01 -0.34 1.02 0 0 Z " fill="#0DF677" transform="translate(57,128)"/>
<path d="M0 0 C5.78898419 -0.20674944 10.42932723 0.40837921 16 2 C16 1.34 16 0.68 16 0 C17.32 0.33 18.64 0.66 20 1 C19.67 1.66 19.34 2.32 19 3 C25.27 3 31.54 3 38 3 C38 3.66 38 4.32 38 5 C25.46 5 12.92 5 0 5 C0 3.35 0 1.7 0 0 Z " fill="#20E57E" transform="translate(2,149)"/>
<path d="M0 0 C0 0.33 0 0.66 0 1 C-1.05960938 1.13277344 -2.11921875 1.26554688 -3.2109375 1.40234375 C-4.59898279 1.58053875 -5.98700231 1.7589346 -7.375 1.9375 C-8.07367188 2.02451172 -8.77234375 2.11152344 -9.4921875 2.20117188 C-13.36783575 2.66318128 -13.36783575 2.66318128 -17 4 C-19.96803929 4.09874103 -22.90741546 4.13893232 -25.875 4.125 C-27.09896484 4.13080078 -27.09896484 4.13080078 -28.34765625 4.13671875 C-29.13785156 4.13542969 -29.92804687 4.13414062 -30.7421875 4.1328125 C-31.4626123 4.13168457 -32.18303711 4.13055664 -32.92529297 4.12939453 C-35.05855744 3.99634791 -36.94751238 3.58204873 -39 3 C-39 3.66 -39 4.32 -39 5 C-44.75 5.125 -44.75 5.125 -47 4 C-47 3.34 -47 2.68 -47 2 C-47.99 1.67 -48.98 1.34 -50 1 C-44.647265 0.85571522 -39.2944828 0.71337876 -33.94165039 0.57275391 C-32.12523033 0.52477118 -30.30882363 0.47627996 -28.49243164 0.42724609 C-9.13453923 -0.09464482 -9.13453923 -0.09464482 0 0 Z " fill="#10DE73" transform="translate(57,146)"/>
<path d="M0 0 C1.77074917 -0.02705729 3.54161711 -0.04642195 5.3125 -0.0625 C6.29863281 -0.07410156 7.28476563 -0.08570312 8.30078125 -0.09765625 C11 0 11 0 14 1 C13.67 2.32 13.34 3.64 13 5 C12.34 5 11.68 5 11 5 C11.495 7.475 11.495 7.475 12 10 C10.68 10.33 9.36 10.66 8 11 C8 10.34 8 9.68 8 9 C8.66 9 9.32 9 10 9 C10 7.35 10 5.7 10 4 C-7.49 4 -24.98 4 -43 4 C-43 3.67 -43 3.34 -43 3 C-28.48 2.67 -13.96 2.34 1 2 C0.505 1.01 0.505 1.01 0 0 Z " fill="#03BA54" transform="translate(127,104)"/>
<path d="M0 0 C2.97 0.33 5.94 0.66 9 1 C9 1.66 9 2.32 9 3 C-5.87201902 7.95733967 -25.57591528 5.16251513 -41 4 C-41 3.67 -41 3.34 -41 3 C-32.25673005 1.98874945 -23.60676561 1.88042289 -14.8125 1.9375 C-13.46549648 1.94253037 -12.11849111 1.94709053 -10.77148438 1.95117188 C-7.51427463 1.96284646 -4.25716222 1.97922117 -1 2 C-0.67 1.34 -0.34 0.68 0 0 Z " fill="#0EAC40" transform="translate(54,142)"/>
<path d="M0 0 C1.485 0.99 1.485 0.99 3 2 C2.67 3.65 2.34 5.3 2 7 C3.65 7.33 5.3 7.66 7 8 C7 15.92 7 23.84 7 32 C6.34 32 5.68 32 5 32 C4.67 29.03 4.34 26.06 4 23 C3.34 23 2.68 23 2 23 C1.93941406 22.01257813 1.87882813 21.02515625 1.81640625 20.0078125 C1.73261719 18.72648437 1.64882812 17.44515625 1.5625 16.125 C1.48128906 14.84882812 1.40007812 13.57265625 1.31640625 12.2578125 C1.20793973 9.11699848 1.20793973 9.11699848 0 7 C-0.04022391 4.6670134 -0.04320247 2.33293334 0 0 Z " fill="#07AD49" transform="translate(163,85)"/>
<path d="M0 0 C2.00720923 0.28674418 4.0085944 0.61866701 6 1 C6 1.66 6 2.32 6 3 C6.680625 3.12375 7.36125 3.2475 8.0625 3.375 C11.42758376 4.09097527 14.69250925 5.05500264 18 6 C22.41750605 7.05925989 26.7932 7.31613959 31.3125 7.5625 C32.05306641 7.60568359 32.79363281 7.64886719 33.55664062 7.69335938 C35.37091464 7.79870432 37.1854355 7.89978316 39 8 C39 8.33 39 8.66 39 9 C29.1 9.33 19.2 9.66 9 10 C8.67 9.34 8.34 8.68 8 8 C7.01 7.67 6.02 7.34 5 7 C5 6.34 5 5.68 5 5 C4.01 4.67 3.02 4.34 2 4 C2 3.34 2 2.68 2 2 C1.01 1.67 0.02 1.34 -1 1 C-0.67 0.67 -0.34 0.34 0 0 Z " fill="#079A3C" transform="translate(70,97)"/>
<path d="M0 0 C2.97 0 5.94 0 9 0 C9 0.66 9 1.32 9 2 C9.68102783 1.98952637 10.36205566 1.97905273 11.0637207 1.96826172 C14.14660966 1.92671122 17.22943971 1.90067689 20.3125 1.875 C21.38435547 1.85824219 22.45621094 1.84148437 23.56054688 1.82421875 C24.58857422 1.81777344 25.61660156 1.81132812 26.67578125 1.8046875 C27.62364502 1.79421387 28.57150879 1.78374023 29.5480957 1.77294922 C32 2 32 2 35 4 C19.655 4.495 19.655 4.495 4 5 C3.67 4.34 3.34 3.68 3 3 C2.01 2.67 1.02 2.34 0 2 C0 1.34 0 0.68 0 0 Z " fill="#18E77B" transform="translate(36,132)"/>
<path d="M0 0 C2.64 0 5.28 0 8 0 C8 0.66 8 1.32 8 2 C17.9 2 27.8 2 38 2 C38 2.33 38 2.66 38 3 C33.55852431 3.85916096 29.37230176 4.11697565 24.8515625 4.09765625 C23.86547501 4.09553383 23.86547501 4.09553383 22.85946655 4.09336853 C20.78126269 4.08781762 18.70317073 4.07527465 16.625 4.0625 C15.20703282 4.05747864 13.78906393 4.05291685 12.37109375 4.04882812 C8.91402678 4.03786437 5.45702433 4.02063421 2 4 C1.34 2.68 0.68 1.36 0 0 Z " fill="#1ED371" transform="translate(56,115)"/>
<path d="M0 0 C0.99 0.33 1.98 0.66 3 1 C-0.48514146 4.8951581 -3.03234636 6.52027338 -8 8 C-8.61230469 8.51949219 -9.22460938 9.03898438 -9.85546875 9.57421875 C-12.61978398 11.41206039 -14.01150807 11.1562291 -17.25 10.6875 C-18.58804688 10.50767578 -18.58804688 10.50767578 -19.953125 10.32421875 C-20.62859375 10.21722656 -21.3040625 10.11023438 -22 10 C-21.67 9.34 -21.34 8.68 -21 8 C-19.02 8 -17.04 8 -15 8 C-15.66 7.34 -16.32 6.68 -17 6 C-11.75791128 4.04295354 -7.62747174 3 -2 3 C-1.34 2.01 -0.68 1.02 0 0 Z " fill="#1ABD6C" transform="translate(144,144)"/>
<path d="M0 0 C5.61 0 11.22 0 17 0 C17.33 0.66 17.66 1.32 18 2 C15.36 2.33 12.72 2.66 10 3 C10.33 3.66 10.66 4.32 11 5 C2.75 4.67 -5.5 4.34 -14 4 C-14 3.67 -14 3.34 -14 3 C-13.07316406 2.95101562 -12.14632813 2.90203125 -11.19140625 2.8515625 C-9.99386719 2.77679688 -8.79632813 2.70203125 -7.5625 2.625 C-6.36753906 2.55539063 -5.17257813 2.48578125 -3.94140625 2.4140625 C-2.97074219 2.27742187 -2.00007813 2.14078125 -1 2 C-0.67 1.34 -0.34 0.68 0 0 Z M0 2 C0 2.33 0 2.66 0 3 C2.31 3 4.62 3 7 3 C7 2.67 7 2.34 7 2 C4.69 2 2.38 2 0 2 Z " fill="#00B32F" transform="translate(44,140)"/>
<path d="M0 0 C1.32 0.66 2.64 1.32 4 2 C2.68 5.3 1.36 8.6 0 12 C-0.66 12 -1.32 12 -2 12 C-1.979375 13.11375 -1.95875 14.2275 -1.9375 15.375 C-2 19 -2 19 -3 21 C-3.66 21 -4.32 21 -5 21 C-5.22151549 19.20991533 -5.42682213 17.41781838 -5.625 15.625 C-5.74101563 14.62726563 -5.85703125 13.62953125 -5.9765625 12.6015625 C-5.98429687 11.74304688 -5.99203125 10.88453125 -6 10 C-5.34 9.34 -4.68 8.68 -4 8 C-4 7.34 -4 6.68 -4 6 C-3.01 5.67 -2.02 5.34 -1 5 C-1.33 4.34 -1.66 3.68 -2 3 C-1.34 3 -0.68 3 0 3 C0 2.01 0 1.02 0 0 Z " fill="#0EA844" transform="translate(66,53)"/>
<path d="M0 0 C3.43816147 0.1098283 6.87522348 0.24046863 10.3125 0.375 C11.28896484 0.4059375 12.26542969 0.436875 13.27148438 0.46875 C14.20927734 0.50742187 15.14707031 0.54609375 16.11328125 0.5859375 C16.97735596 0.6173584 17.84143066 0.6487793 18.73168945 0.68115234 C21 1 21 1 24 3 C22.24623047 3.05607422 22.24623047 3.05607422 20.45703125 3.11328125 C18.90882325 3.1789628 17.36064758 3.24540939 15.8125 3.3125 C15.04357422 3.33505859 14.27464844 3.35761719 13.48242188 3.38085938 C8.80053624 3.6018926 5.93316335 4.23715644 2 7 C1.34 7 0.68 7 0 7 C-0.103125 6.360625 -0.20625 5.72125 -0.3125 5.0625 C-0.539375 4.381875 -0.76625 3.70125 -1 3 C-1.99 2.67 -2.98 2.34 -4 2 C-2.68 2 -1.36 2 0 2 C0 1.34 0 0.68 0 0 Z M0 2 C4 3 4 3 4 3 Z " fill="#07A841" transform="translate(87,37)"/>
<path d="M0 0 C0.99 0 1.98 0 3 0 C3.50692692 1.5811292 4.00526443 3.16501383 4.5 4.75 C4.7784375 5.63171875 5.056875 6.5134375 5.34375 7.421875 C6 10 6 10 6 14 C6.99 14.33 7.98 14.66 9 15 C8.67 16.32 8.34 17.64 8 19 C6 18 6 18 5 15 C4.34 14.67 3.68 14.34 3 14 C3.33 13.01 3.66 12.02 4 11 C2.35 10.67 0.7 10.34 -1 10 C-0.67 6.7 -0.34 3.4 0 0 Z " fill="#11974B" transform="translate(61,79)"/>
<path d="M0 0 C3.22914752 -0.02917228 6.45826083 -0.04685663 9.6875 -0.0625 C10.59951172 -0.07087891 11.51152344 -0.07925781 12.45117188 -0.08789062 C13.33740234 -0.09111328 14.22363281 -0.09433594 15.13671875 -0.09765625 C15.94842529 -0.10289307 16.76013184 -0.10812988 17.59643555 -0.11352539 C20.14864673 0.0070209 22.51026137 0.440051 25 1 C25 1.33 25 1.66 25 2 C16.30019136 3.01286753 7.74507107 3.10621544 -1 3 C-0.67 2.01 -0.34 1.02 0 0 Z " fill="#11E071" transform="translate(57,128)"/>
<path d="M0 0 C-1.65 0.33 -3.3 0.66 -5 1 C-5 1.66 -5 2.32 -5 3 C-1.37 3 2.26 3 6 3 C6.33 3.99 6.66 4.98 7 6 C2.05 6 -2.9 6 -8 6 C-8 4.02 -8 2.04 -8 0 C-2.25 -1.125 -2.25 -1.125 0 0 Z " fill="#15BF63" transform="translate(33,131)"/>
<path d="M0 0 C1.32 0 2.64 0 4 0 C4 1.65 4 3.3 4 5 C2.68 5 1.36 5 0 5 C0.33 6.32 0.66 7.64 1 9 C0.01 9 -0.98 9 -2 9 C-2.33 9.66 -2.66 10.32 -3 11 C-2.01 11 -1.02 11 0 11 C0 11.66 0 12.32 0 13 C-1.65 12.67 -3.3 12.34 -5 12 C-5 9.69 -5 7.38 -5 5 C-4.34 5 -3.68 5 -3 5 C-3 4.01 -3 3.02 -3 2 C-2.01 2 -1.02 2 0 2 C0 1.34 0 0.68 0 0 Z " fill="#09CF52" transform="translate(97,67)"/>
<path d="M0 0 C3.96 0 7.92 0 12 0 C12 0.99 12 1.98 12 3 C5.30386804 3.797837 -1.25766581 4.12910853 -8 4 C-8 3.34 -8 2.68 -8 2 C-5.36 1.67 -2.72 1.34 0 1 C0 0.67 0 0.34 0 0 Z " fill="#0DAB5C" transform="translate(74,140)"/>
<path d="M0 0 C0.99 0.33 1.98 0.66 3 1 C3 3.3125 3 3.3125 2 6 C-1.54580942 8.19541939 -4.86075778 9.11867106 -9 8.6875 C-9.66 8.460625 -10.32 8.23375 -11 8 C-10.01 7.34 -9.02 6.68 -8 6 C-8 5.34 -8 4.68 -8 4 C-6.865625 3.525625 -5.73125 3.05125 -4.5625 2.5625 C-1.24259834 1.36377917 -1.24259834 1.36377917 0 0 Z " fill="#09B64A" transform="translate(133,116)"/>
<path d="M0 0 C4.95 0 9.9 0 15 0 C16.125 7.875 16.125 7.875 15 12 C13.35 12.33 11.7 12.66 10 13 C10 12.34 10 11.68 10 11 C10.66 11 11.32 11 12 11 C12 9.35 12 7.7 12 6 C12.66 6 13.32 6 14 6 C14 4.68 14 3.36 14 2 C7.07 1.505 7.07 1.505 0 1 C0 0.67 0 0.34 0 0 Z " fill="#13BE63" transform="translate(127,103)"/>
<path d="M0 0 C2.33944736 0.28730055 4.6739143 0.61936779 7 1 C7 1.33 7 1.66 7 2 C1.37742839 3.9169573 -3.52369385 4.24889924 -9.4375 4.125 C-10.26443359 4.11597656 -11.09136719 4.10695312 -11.94335938 4.09765625 C-13.96236708 4.07431512 -15.98122356 4.03845288 -18 4 C-17.67 3.34 -17.34 2.68 -17 2 C-14.30847736 1.7137306 -11.69902132 1.53256862 -9 1.4375 C-4.10931377 1.67969985 -4.10931377 1.67969985 0 0 Z " fill="#22E17A" transform="translate(122,150)"/>
<path d="M0 0 C2.64 0 5.28 0 8 0 C8 2 8 4 8 6 C1.25 6.125 1.25 6.125 -1 5 C-0.67 3.35 -0.34 1.7 0 0 Z " fill="#18C673" transform="translate(50,114)"/>
<path d="M0 0 C1.33332095 2.6666419 0.67102033 4.16680303 0 7 C-0.66 7 -1.32 7 -2 7 C-1.95875 8.051875 -1.9175 9.10375 -1.875 10.1875 C-1.99147875 13.74010173 -2.47208068 15.84866641 -4 19 C-4.99 19 -5.98 19 -7 19 C-7 17.35 -7 15.7 -7 14 C-6.34 14 -5.68 14 -5 14 C-4.67 11.03 -4.34 8.06 -4 5 C-3.34 5 -2.68 5 -2 5 C-1.34 3.35 -0.68 1.7 0 0 Z " fill="#0EEE78" transform="translate(68,60)"/>
<path d="M0 0 C0.80179688 0.09990234 1.60359375 0.19980469 2.4296875 0.30273438 C4.41214691 0.5505418 6.39367009 0.80581807 8.375 1.0625 C8.375 1.3925 8.375 1.7225 8.375 2.0625 C-3.505 2.0625 -15.385 2.0625 -27.625 2.0625 C-27.625 1.7325 -27.625 1.4025 -27.625 1.0625 C-25.81902344 0.97162109 -25.81902344 0.97162109 -23.9765625 0.87890625 C-22.40102923 0.79450268 -20.82550904 0.70985459 -19.25 0.625 C-18.4559375 0.58568359 -17.661875 0.54636719 -16.84375 0.50585938 C-2.27152994 -0.29684766 -2.27152994 -0.29684766 0 0 Z " fill="#0AFD7E" transform="translate(50.625,148.9375)"/>
<path d="M0 0 C2.64 0 5.28 0 8 0 C8.33 1.65 8.66 3.3 9 5 C6.03 5 3.06 5 0 5 C0 3.35 0 1.7 0 0 Z " fill="#30C68C" transform="translate(2,149)"/>
<path d="M0 0 C2.64 0 5.28 0 8 0 C8 0.99 8 1.98 8 3 C4.33837179 5.86001016 1.25905973 6.4363154 -3.3125 6.6875 C-4.38113281 6.75324219 -5.44976562 6.81898438 -6.55078125 6.88671875 C-7.76314453 6.94279297 -7.76314453 6.94279297 -9 7 C-5.54941314 4.69960876 -3.05904498 4.5261725 1 4 C1.33 3.67 1.66 3.34 2 3 C1.34 2.67 0.68 2.34 0 2 C0 1.34 0 0.68 0 0 Z " fill="#0EEB74" transform="translate(95,136)"/>
<path d="M0 0 C4.95 0 9.9 0 15 0 C15 0.66 15 1.32 15 2 C13.68 2 12.36 2 11 2 C11 2.66 11 3.32 11 4 C5.25 4.125 5.25 4.125 3 3 C3 2.34 3 1.68 3 1 C2.01 0.67 1.02 0.34 0 0 Z " fill="#0F8642" transform="translate(7,147)"/>
<path d="M0 0 C9.57 0 19.14 0 29 0 C29 0.33 29 0.66 29 1 C24.05 1 19.1 1 14 1 C14 1.66 14 2.32 14 3 C12.02 3 10.04 3 8 3 C8 2.34 8 1.68 8 1 C5.36 1 2.72 1 0 1 C0 0.67 0 0.34 0 0 Z " fill="#02A55E" transform="translate(50,112)"/>
<path d="M0 0 C-0.33 1.65 -0.66 3.3 -1 5 C-2.98 5 -4.96 5 -7 5 C-7.33 3.35 -7.66 1.7 -8 0 C-4.94736336 -0.98120464 -3.05263664 -0.98120464 0 0 Z " fill="#41AC82" transform="translate(126,113)"/>
<path d="M0 0 C0.66 0.33 1.32 0.66 2 1 C1.67 2.32 1.34 3.64 1 5 C0.34 5 -0.32 5 -1 5 C-1.33 5.66 -1.66 6.32 -2 7 C-2.66 7 -3.32 7 -4 7 C-4 8.32 -4 9.64 -4 11 C-5.32 11.33 -6.64 11.66 -8 12 C-8.33 10.35 -8.66 8.7 -9 7 C-8.443125 6.773125 -7.88625 6.54625 -7.3125 6.3125 C-4.36753316 4.64103234 -2.31843456 2.44723648 0 0 Z " fill="#027229" transform="translate(78,42)"/>
<path d="M0 0 C0.88365234 0.00451172 1.76730469 0.00902344 2.67773438 0.01367188 C4.84768559 0.02540134 7.01760172 0.04333505 9.1875 0.0625 C9.1875 0.3925 9.1875 0.7225 9.1875 1.0625 C8.03121094 1.15337891 8.03121094 1.15337891 6.8515625 1.24609375 C5.34722656 1.37177734 5.34722656 1.37177734 3.8125 1.5 C2.31589844 1.62181641 2.31589844 1.62181641 0.7890625 1.74609375 C-1.79177613 1.91215626 -1.79177613 1.91215626 -3.8125 3.0625 C-5.51613822 3.28872081 -7.22578701 3.47138473 -8.9375 3.625 C-9.84757812 3.70878906 -10.75765625 3.79257813 -11.6953125 3.87890625 C-12.74332031 3.96978516 -12.74332031 3.96978516 -13.8125 4.0625 C-14.1425 3.0725 -14.4725 2.0825 -14.8125 1.0625 C-9.89747242 -0.22985715 -5.03959898 -0.04885517 0 0 Z " fill="#00DE5C" transform="translate(77.8125,137.9375)"/>
<path d="M0 0 C0.33 0 0.66 0 1 0 C1 4.62 1 9.24 1 14 C1.66 14 2.32 14 3 14 C3 16.31 3 18.62 3 21 C2.01 21 1.02 21 0 21 C-0.33 21.66 -0.66 22.32 -1 23 C-0.67 15.41 -0.34 7.82 0 0 Z " fill="#13E675" transform="translate(164,94)"/>
<path d="M0 0 C0.99 0 1.98 0 3 0 C3.33 1.32 3.66 2.64 4 4 C4.99 4 5.98 4 7 4 C7.33 5.32 7.66 6.64 8 8 C7.34 8 6.68 8 6 8 C6 7.34 6 6.68 6 6 C1.71 5.34 -2.58 4.68 -7 4 C-7 3.67 -7 3.34 -7 3 C-4.69 3 -2.38 3 0 3 C0 2.01 0 1.02 0 0 Z " fill="#0EB552" transform="translate(152,77)"/>
<path d="M0 0 C1.65 0 3.3 0 5 0 C4.67054081 2.9651327 4.15096845 4.78260543 2.4375 7.25 C-1.0223361 9.73398489 -3.77692253 9.7184615 -8 10 C-5.08235 8.0549 -3.37462715 7.54723683 0 7 C0 4.69 0 2.38 0 0 Z " fill="#11DE7D" transform="translate(135,115)"/>
<path d="M0 0 C2.475 0.495 2.475 0.495 5 1 C5 1.66 5 2.32 5 3 C6.65 3.33 8.3 3.66 10 4 C10.33 6.64 10.66 9.28 11 12 C10.34 11.67 9.68 11.34 9 11 C8.896875 10.195625 8.79375 9.39125 8.6875 8.5625 C8.460625 7.716875 8.23375 6.87125 8 6 C5.60931266 4.89363605 5.60931266 4.89363605 3 4 C1.1875 1.875 1.1875 1.875 0 0 Z " fill="#11E175" transform="translate(153,82)"/>
<path d="M0 0 C2.31 0 4.62 0 7 0 C4.85397399 2.36062861 2.97554957 3.82654383 0 5 C-2.578125 4.9765625 -2.578125 4.9765625 -5.25 4.625 C-6.14203125 4.51414063 -7.0340625 4.40328125 -7.953125 4.2890625 C-8.96632813 4.14597656 -8.96632813 4.14597656 -10 4 C-9.67 3.34 -9.34 2.68 -9 2 C-6.03 2 -3.06 2 0 2 C0 1.34 0 0.68 0 0 Z " fill="#018B24" transform="translate(132,150)"/>
<path d="M0 0 C0.99 0 1.98 0 3 0 C3.33 1.98 3.66 3.96 4 6 C4.99 6.33 5.98 6.66 7 7 C6.67 8.32 6.34 9.64 6 11 C4 10 4 10 3 7 C2.34 6.67 1.68 6.34 1 6 C1.33 5.01 1.66 4.02 2 3 C1.34 3 0.68 3 0 3 C0 2.01 0 1.02 0 0 Z " fill="#09B24D" transform="translate(63,87)"/>
<path d="M0 0 C0.99 0 1.98 0 3 0 C2.51058824 5.50588235 2.51058824 5.50588235 0.0625 7.875 C-2 9 -2 9 -4 9 C-4.33 9.99 -4.66 10.98 -5 12 C-5.33 11.01 -5.66 10.02 -6 9 C-5.34 8.01 -4.68 7.02 -4 6 C-2.68 6 -1.36 6 0 6 C-0.185625 5.38125 -0.37125 4.7625 -0.5625 4.125 C-1 2 -1 2 0 0 Z " fill="#0B9B45" transform="translate(161,124)"/>
<path d="M0 0 C0 0.66 0 1.32 0 2 C-0.99 2 -1.98 2 -3 2 C-3 2.66 -3 3.32 -3 4 C-5.64 4 -8.28 4 -11 4 C-11 3.34 -11 2.68 -11 2 C-7.17010894 0.19769832 -4.21878192 -0.19622241 0 0 Z " fill="#1DC573" transform="translate(39,130)"/>
<path d="M0 0 C4.67105792 1.55701931 8.08705685 4.08447373 12 7 C11.01 7.495 11.01 7.495 10 8 C9.01 7.67 8.02 7.34 7 7 C7 6.34 7 5.68 7 5 C4.03 4.505 4.03 4.505 1 4 C0.67 2.68 0.34 1.36 0 0 Z " fill="#11E576" transform="translate(69,93)"/>
<path d="M0 0 C3.96 0.33 7.92 0.66 12 1 C12 1.33 12 1.66 12 2 C9.03 2 6.06 2 3 2 C3 2.99 3 3.98 3 5 C1.35 5 -0.3 5 -2 5 C-1.34 3.35 -0.68 1.7 0 0 Z " fill="#005027" transform="translate(111,118)"/>
<path d="M0 0 C0.99 0 1.98 0 3 0 C3.33 1.98 3.66 3.96 4 6 C3.34 6 2.68 6 2 6 C1.67 6.99 1.34 7.98 1 9 C0.34 8.67 -0.32 8.34 -1 8 C-1.125 2.25 -1.125 2.25 0 0 Z M1 3 C2 6 2 6 2 6 Z " fill="#0CC040" transform="translate(164,115)"/>
<path d="M0 0 C3.63 0 7.26 0 11 0 C9.68 0.33 8.36 0.66 7 1 C7.33 2.65 7.66 4.3 8 6 C6.35 6 4.7 6 3 6 C3.99 5.67 4.98 5.34 6 5 C6 4.34 6 3.68 6 3 C5.38125 2.87625 4.7625 2.7525 4.125 2.625 C2 2 2 2 0 0 Z " fill="#34B277" transform="translate(111,112)"/>
<path d="M0 0 C2.97 0.495 2.97 0.495 6 1 C5.67 1.99 5.34 2.98 5 4 C2.69 4.33 0.38 4.66 -2 5 C-2.33 4.34 -2.66 3.68 -3 3 C-2.01 2.67 -1.02 2.34 0 2 C0 1.34 0 0.68 0 0 Z " fill="#068B30" transform="translate(125,120)"/>
<path d="M0 0 C-1.65 0.33 -3.3 0.66 -5 1 C-5 1.66 -5 2.32 -5 3 C-5.99 3 -6.98 3 -8 3 C-8 3.99 -8 4.98 -8 6 C-8.66 6 -9.32 6 -10 6 C-10 7.65 -10 9.3 -10 11 C-10.33 11 -10.66 11 -11 11 C-11.3125 7.75 -11.3125 7.75 -11 4 C-7.94989318 0.7804428 -4.37099695 -2.18549847 0 0 Z " fill="#0DE976" transform="translate(102,66)"/>
<path d="M0 0 C-1.65 0.33 -3.3 0.66 -5 1 C-5 2.65 -5 4.3 -5 6 C-5.99 6 -6.98 6 -8 6 C-8 4.02 -8 2.04 -8 0 C-2.25 -1.125 -2.25 -1.125 0 0 Z " fill="#1C8754" transform="translate(33,131)"/>
<path d="M0 0 C1.62418745 -0.08090971 3.24951745 -0.13914995 4.875 -0.1875 C5.77992187 -0.22230469 6.68484375 -0.25710937 7.6171875 -0.29296875 C8.79667969 -0.14794922 8.79667969 -0.14794922 10 0 C10.66 0.99 11.32 1.98 12 3 C3.96428571 3.40178571 3.96428571 3.40178571 0 0 Z " fill="#00DF74" transform="translate(99,119)"/>
<path d="M0 0 C0 0.99 0 1.98 0 3 C-0.66 3 -1.32 3 -2 3 C-1.67 4.65 -1.34 6.3 -1 8 C-2.32 8.33 -3.64 8.66 -5 9 C-5 8.34 -5 7.68 -5 7 C-4.34 7 -3.68 7 -3 7 C-3 5.35 -3 3.7 -3 2 C-4.98 2 -6.96 2 -9 2 C-9 1.67 -9 1.34 -9 1 C-5.94152152 0.45627049 -3.11227195 0 0 0 Z " fill="#00620C" transform="translate(140,106)"/>
<path d="M0 0 C0.33 0 0.66 0 1 0 C1 5.61 1 11.22 1 17 C-1 15 -1 15 -1.23046875 12.79296875 C-1.08669596 4.07510987 -1.08669596 4.07510987 0 0 Z " fill="#00B82C" transform="translate(59,67)"/>
<path d="M0 0 C3.63 0.33 7.26 0.66 11 1 C6.25 5 6.25 5 4 5 C3.896875 4.360625 3.79375 3.72125 3.6875 3.0625 C3.460625 2.381875 3.23375 1.70125 3 1 C2.01 0.67 1.02 0.34 0 0 Z " fill="#10B754" transform="translate(83,39)"/>
<path d="M0 0 C0 0.33 0 0.66 0 1 C-4.1196377 2.29243536 -7.66831683 3.26252625 -12 3 C-9.42852703 -2.14294593 -4.93360395 -0.94876999 0 0 Z " fill="#13D570" transform="translate(129,151)"/>
<path d="M0 0 C0.99 0.33 1.98 0.66 3 1 C3.33 2.65 3.66 4.3 4 6 C2.35 5.67 0.7 5.34 -1 5 C-0.67 3.35 -0.34 1.7 0 0 Z " fill="#33AB82" transform="translate(50,114)"/>
<path d="M0 0 C1.98 0 3.96 0 6 0 C5.67 0.66 5.34 1.32 5 2 C6.32 2.66 7.64 3.32 9 4 C8 5 8 5 5.625 5.375 C4.325625 5.189375 4.325625 5.189375 3 5 C1.1875 2.5 1.1875 2.5 0 0 Z " fill="#0ADA43" transform="translate(118,122)"/>
<path d="M0 0 C2 0 2 0 3.625 1.375 C5 3 5 3 5 5 C4.34 5 3.68 5 3 5 C2.67 5.99 2.34 6.98 2 8 C1.34 7.67 0.68 7.34 0 7 C0 4.69 0 2.38 0 0 Z " fill="#0BA033" transform="translate(182,38)"/>
<path d="M0 0 C0.66 0 1.32 0 2 0 C2 1.98 2 3.96 2 6 C2.99 6 3.98 6 5 6 C5 6.66 5 7.32 5 8 C3.35 7.67 1.7 7.34 0 7 C0 4.69 0 2.38 0 0 Z " fill="#10D16C" transform="translate(92,72)"/>
<path d="M0 0 C0.99 0.33 1.98 0.66 3 1 C2.34 1 1.68 1 1 1 C0.566875 1.928125 0.566875 1.928125 0.125 2.875 C-1 5 -1 5 -3 7 C-3.99 7 -4.98 7 -6 7 C-6 6.34 -6 5.68 -6 5 C-5.01 5 -4.02 5 -3 5 C-2.87625 4.360625 -2.7525 3.72125 -2.625 3.0625 C-2.41875 2.381875 -2.2125 1.70125 -2 1 C-1.34 0.67 -0.68 0.34 0 0 Z " fill="#14BB68" transform="translate(82,42)"/>
<path d="M0 0 C0.99 0.33 1.98 0.66 3 1 C0.6875 3.5 0.6875 3.5 -2 6 C-2.99 6 -3.98 6 -5 6 C-5 5.01 -5 4.02 -5 3 C-4.360625 2.87625 -3.72125 2.7525 -3.0625 2.625 C-2.0415625 2.315625 -2.0415625 2.315625 -1 2 C-0.67 1.34 -0.34 0.68 0 0 Z " fill="#002201" transform="translate(144,144)"/>
<path d="M0 0 C2.64 0 5.28 0 8 0 C8 0.99 8 1.98 8 3 C5.36 2.67 2.72 2.34 0 2 C0 1.34 0 0.68 0 0 Z " fill="#14E074" transform="translate(95,136)"/>
<path d="M0 0 C2.00720923 0.28674418 4.0085944 0.61866701 6 1 C6.33 2.32 6.66 3.64 7 5 C5.35 4.67 3.7 4.34 2 4 C2 3.34 2 2.68 2 2 C1.01 1.67 0.02 1.34 -1 1 C-0.67 0.67 -0.34 0.34 0 0 Z " fill="#0CA762" transform="translate(70,97)"/>
<path d="M0 0 C1.65 0 3.3 0 5 0 C3.515 2.475 3.515 2.475 2 5 C1.01 4.67 0.02 4.34 -1 4 C-0.67 2.68 -0.34 1.36 0 0 Z " fill="#0ABC35" transform="translate(149,138)"/>
<path d="M0 0 C1.32 0.66 2.64 1.32 4 2 C2.515 4.475 2.515 4.475 1 7 C-1 6 -1 6 -2 3 C-1.34 3 -0.68 3 0 3 C0 2.01 0 1.02 0 0 Z " fill="#0B8A38" transform="translate(66,53)"/>
<path d="M0 0 C-1.98 0.99 -1.98 0.99 -4 2 C-3.67 2.66 -3.34 3.32 -3 4 C-5.31 4 -7.62 4 -10 4 C-6.58908673 0.88145073 -4.68377325 -0.53528837 0 0 Z " fill="#095C29" transform="translate(58,141)"/>
<path d="M0 0 C0.99 0.33 1.98 0.66 3 1 C2.67 2.65 2.34 4.3 2 6 C1.01 6 0.02 6 -1 6 C-0.67 4.02 -0.34 2.04 0 0 Z " fill="#24785C" transform="translate(123,112)"/>
<path d="M0 0 C2 2 2 2 2 5 C0.68 5.33 -0.64 5.66 -2 6 C-2.33 4.35 -2.66 2.7 -3 1 C-2.01 0.67 -1.02 0.34 0 0 Z " fill="#0A9B35" transform="translate(72,48)"/>
<path d="M0 0 C0.33 0 0.66 0 1 0 C1 2.31 1 4.62 1 7 C0.01 7 -0.98 7 -2 7 C-2 5.35 -2 3.7 -2 2 C-1.34 2 -0.68 2 0 2 C0 1.34 0 0.68 0 0 Z " fill="#11DC6E" transform="translate(63,72)"/>
<path d="M0 0 C2.31 0 4.62 0 7 0 C7 0.66 7 1.32 7 2 C4.69 2 2.38 2 0 2 C0 1.34 0 0.68 0 0 Z " fill="#00E300" transform="translate(32,127)"/>
<path d="M0 0 C0.33 0 0.66 0 1 0 C1 3.96 1 7.92 1 12 C0.67 12 0.34 12 0 12 C0 8.04 0 4.08 0 0 Z " fill="#000000" transform="translate(170,99)"/>
<path d="M0 0 C1.65 0 3.3 0 5 0 C5 0.33 5 0.66 5 1 C3.35 1 1.7 1 0 1 C0 0.67 0 0.34 0 0 Z " fill="#006633" transform="translate(26,129)"/>
</svg>
